<mxfile host="app.diagrams.net" agent="Mozilla/5.0 (Windows NT 10.0; Win64; x64) AppleWebKit/537.36 (KHTML, like Gecko) Chrome/138.0.0.0 Safari/537.36" version="28.0.7" pages="3">
  <diagram name="ITP-Blueprint" id="7T6L8AW5tMFClD4Ot9Wf">
    <mxGraphModel dx="1042" dy="527" grid="1" gridSize="10" guides="1" tooltips="1" connect="1" arrows="1" fold="1" page="1" pageScale="1" pageWidth="827" pageHeight="1169" math="0" shadow="0">
      <root>
        <mxCell id="0" />
        <mxCell id="1" parent="0" />
        <mxCell id="0c4fmtlid6ZM7AGweIoZ-1" value="Actor" style="shape=umlActor;verticalLabelPosition=bottom;verticalAlign=top;html=1;outlineConnect=0;" parent="1" vertex="1">
          <mxGeometry x="60" y="285" width="30" height="60" as="geometry" />
        </mxCell>
        <mxCell id="0c4fmtlid6ZM7AGweIoZ-2" value="" style="whiteSpace=wrap;html=1;aspect=fixed;" parent="1" vertex="1">
          <mxGeometry x="30" y="60" width="800" height="800" as="geometry" />
        </mxCell>
        <object label="" id="0c4fmtlid6ZM7AGweIoZ-3">
          <mxCell style="outlineConnect=0;dashed=0;verticalLabelPosition=bottom;verticalAlign=top;align=center;html=1;shape=mxgraph.aws3.api_gateway;fillColor=#D9A741;gradientColor=none;" parent="1" vertex="1">
            <mxGeometry x="150" y="270" width="50" height="70" as="geometry" />
          </mxCell>
        </object>
        <mxCell id="0c4fmtlid6ZM7AGweIoZ-4" value="" style="editableCssRules=.*;html=1;shape=image;verticalLabelPosition=bottom;labelBackgroundColor=#ffffff;verticalAlign=top;aspect=fixed;imageAspect=0;image=data:image/svg+xml,PHN2ZyB4bWxucz0iaHR0cDovL3d3dy53My5vcmcvMjAwMC9zdmciIHhtbG5zOnY9Imh0dHBzOi8vdmVjdGEuaW8vbmFubyIgd2lkdGg9IjM3Ny4xNTkzMDIxNjAyNjMwNSIgaGVpZ2h0PSIzMzYuMTYyNDk5MDAzMzEwOCIgdmlld0JveD0iLTAuMDU4MDAwMDA1NzgxNjUwNTQgMC4xMTI5OTk5OTgwMzMwNDY3MiA5OS43OTAwMDA5MTU1MjczNCA4OC45NDMwMDA3OTM0NTcwMyI+JiN4YTs8c3R5bGUgdHlwZT0idGV4dC9jc3MiPiYjeGE7CS5zdDB7ZmlsbDojNjY5ZGY2O30mI3hhOwkuc3Qxe2ZpbGw6I2FlY2JmYTt9JiN4YTsJLnN0MntmaWxsOiM0Mjg1ZjQ7fSYjeGE7PC9zdHlsZT4mI3hhOwk8cGF0aCBjbGFzcz0ic3QwIiBkPSJNNTMuMjQzIDYyLjA5VjQ3LjA5NGwxMy4yMDEgOC40MTZ2MTUuMDM4em0tMzMuMDIxIDBWNDcuMDk0bDEzLjIwMSA4LjQxNnYxNS4wMzh6bTE2LjUxMS0zMi4yODVWMTQuODFsMTMuMjAxIDguNDE2djE1LjAzOHptNjIuOTk5IDMzLjk2VjI1LjQwM2wtOS41NjItMS44ODR2NDIuMTMxem0tOTkuNzg4IDBWMjUuNDAzbDkuNTYyLTEuODg0djQyLjEzMXoiLz4mI3hhOwk8cGF0aCBjbGFzcz0ic3QxIiBkPSJNNTMuMTg1IDQ3LjA5NGwxMy4yNTgtOC4yODcgMTMuMDE2IDguMjM0LTEzLjAxNiA4LjQ2OXptLTMzLjAyMSAwbDEzLjI1OC04LjI4NyAxMy4wMTYgOC4yMzQtMTMuMDE2IDguNDY5ek0zNi42NzUgMTQuODFsMTMuMjU4LTguMjg3IDEzLjAxNiA4LjIzNC0xMy4wMTYgOC40Njl6bTYzLjA1NiA0OC45NTZ2MTIuMjE3TDc3LjAxIDg5LjA1NVY3Ny43NTJ6bTAtMzguMzYzVjEzLjE4Nkw3Ny4wMS4xMTN2MTEuMzAzek0tLjA1OCA2My43NjZ2MTIuMjE3bDIyLjcyMSAxMy4wNzNWNzcuNzUyem0wLTM4LjM2M1YxMy4xODZMMjIuNjYzLjExM3YxMS4zMDN6Ii8+JiN4YTsJPHBhdGggY2xhc3M9InN0MiIgZD0iTTY2LjQ0NCA3MC41NDdWNTUuNTFsMTMuMDE2LTguNDY5djE1LjR6bS0zMy4wMjEgMFY1NS41MWwxMy4wMTYtOC40Njl2MTUuNHptMTYuNTExLTMyLjI4NVYyMy4yMjVsMTMuMDE2LTguNDY5djE1LjR6bTQ5Ljc5OCAyNS41MDNsLTkuNTYyIDUuODh2LTMuOTk2em0wLTM4LjM2M2wtOS41NjItNS44OHYzLjk5NnpNLS4wNTggNjMuNzY2bDkuNTYyIDUuODh2LTMuOTk2em0wLTM4LjM2M2w5LjU2Mi01Ljg4djMuOTk2eiIvPiYjeGE7PC9zdmc+;" parent="1" vertex="1">
          <mxGeometry x="738" y="70.5" width="40" height="36" as="geometry" />
        </mxCell>
        <mxCell id="0c4fmtlid6ZM7AGweIoZ-5" value="" style="edgeStyle=orthogonalEdgeStyle;rounded=0;orthogonalLoop=1;jettySize=auto;html=1;" parent="1" source="0c4fmtlid6ZM7AGweIoZ-7" target="0c4fmtlid6ZM7AGweIoZ-19" edge="1">
          <mxGeometry relative="1" as="geometry" />
        </mxCell>
        <mxCell id="0c4fmtlid6ZM7AGweIoZ-6" value="" style="edgeStyle=orthogonalEdgeStyle;rounded=0;orthogonalLoop=1;jettySize=auto;html=1;" parent="1" source="0c4fmtlid6ZM7AGweIoZ-7" target="0c4fmtlid6ZM7AGweIoZ-44" edge="1">
          <mxGeometry relative="1" as="geometry" />
        </mxCell>
        <mxCell id="0c4fmtlid6ZM7AGweIoZ-7" value="" style="image;aspect=fixed;html=1;points=[];align=center;fontSize=12;image=img/lib/azure2/integration/Service_Bus.svg;" parent="1" vertex="1">
          <mxGeometry x="336" y="375" width="129.3" height="114.09" as="geometry" />
        </mxCell>
        <mxCell id="0c4fmtlid6ZM7AGweIoZ-8" value="" style="image;aspect=fixed;html=1;points=[];align=center;fontSize=12;image=img/lib/azure2/security/Key_Vaults.svg;" parent="1" vertex="1">
          <mxGeometry x="738" y="127" width="43" height="43" as="geometry" />
        </mxCell>
        <mxCell id="0c4fmtlid6ZM7AGweIoZ-9" value="" style="image;aspect=fixed;html=1;points=[];align=center;fontSize=12;image=img/lib/azure2/analytics/Log_Analytics_Workspaces.svg;" parent="1" vertex="1">
          <mxGeometry x="738" y="183" width="43" height="43" as="geometry" />
        </mxCell>
        <mxCell id="0c4fmtlid6ZM7AGweIoZ-10" value="App GW" style="text;html=1;align=center;verticalAlign=middle;whiteSpace=wrap;rounded=0;" parent="1" vertex="1">
          <mxGeometry x="145" y="345" width="60" height="30" as="geometry" />
        </mxCell>
        <mxCell id="0c4fmtlid6ZM7AGweIoZ-11" value="Container Registry" style="text;html=1;align=center;verticalAlign=middle;whiteSpace=wrap;rounded=0;" parent="1" vertex="1">
          <mxGeometry x="770" y="73.5" width="60" height="30" as="geometry" />
        </mxCell>
        <mxCell id="0c4fmtlid6ZM7AGweIoZ-12" value="Service Bus" style="text;html=1;align=center;verticalAlign=middle;whiteSpace=wrap;rounded=0;" parent="1" vertex="1">
          <mxGeometry x="300" y="417.04" width="60" height="30" as="geometry" />
        </mxCell>
        <mxCell id="0c4fmtlid6ZM7AGweIoZ-13" value="Key vault" style="text;html=1;align=center;verticalAlign=middle;whiteSpace=wrap;rounded=0;" parent="1" vertex="1">
          <mxGeometry x="770" y="133.5" width="60" height="30" as="geometry" />
        </mxCell>
        <mxCell id="0c4fmtlid6ZM7AGweIoZ-14" value="Log analytics" style="text;html=1;align=center;verticalAlign=middle;whiteSpace=wrap;rounded=0;" parent="1" vertex="1">
          <mxGeometry x="770" y="185" width="60" height="30" as="geometry" />
        </mxCell>
        <mxCell id="0c4fmtlid6ZM7AGweIoZ-15" value="Tenant Service" style="rounded=1;whiteSpace=wrap;html=1;" parent="1" vertex="1">
          <mxGeometry x="354" y="170" width="96" height="40" as="geometry" />
        </mxCell>
        <mxCell id="0c4fmtlid6ZM7AGweIoZ-16" value="" style="edgeStyle=orthogonalEdgeStyle;rounded=0;orthogonalLoop=1;jettySize=auto;html=1;" parent="1" source="0c4fmtlid6ZM7AGweIoZ-19" target="0c4fmtlid6ZM7AGweIoZ-25" edge="1">
          <mxGeometry relative="1" as="geometry" />
        </mxCell>
        <mxCell id="0c4fmtlid6ZM7AGweIoZ-17" value="" style="edgeStyle=orthogonalEdgeStyle;rounded=0;orthogonalLoop=1;jettySize=auto;html=1;" parent="1" source="0c4fmtlid6ZM7AGweIoZ-19" target="0c4fmtlid6ZM7AGweIoZ-45" edge="1">
          <mxGeometry relative="1" as="geometry" />
        </mxCell>
        <mxCell id="0c4fmtlid6ZM7AGweIoZ-18" value="" style="edgeStyle=orthogonalEdgeStyle;rounded=0;orthogonalLoop=1;jettySize=auto;html=1;" parent="1" source="0c4fmtlid6ZM7AGweIoZ-19" target="0c4fmtlid6ZM7AGweIoZ-48" edge="1">
          <mxGeometry relative="1" as="geometry" />
        </mxCell>
        <mxCell id="0c4fmtlid6ZM7AGweIoZ-19" value="Provisioning&lt;div&gt;Service&lt;/div&gt;" style="rounded=1;whiteSpace=wrap;html=1;" parent="1" vertex="1">
          <mxGeometry x="350.65" y="560" width="100" height="40" as="geometry" />
        </mxCell>
        <mxCell id="0c4fmtlid6ZM7AGweIoZ-20" value="" style="edgeStyle=orthogonalEdgeStyle;rounded=0;orthogonalLoop=1;jettySize=auto;html=1;" parent="1" source="0c4fmtlid6ZM7AGweIoZ-21" target="0c4fmtlid6ZM7AGweIoZ-7" edge="1">
          <mxGeometry relative="1" as="geometry" />
        </mxCell>
        <mxCell id="0c4fmtlid6ZM7AGweIoZ-21" value="Ledger Service" style="rounded=1;whiteSpace=wrap;html=1;" parent="1" vertex="1">
          <mxGeometry x="350" y="273" width="100" height="40" as="geometry" />
        </mxCell>
        <mxCell id="0c4fmtlid6ZM7AGweIoZ-22" value="" style="shadow=0;dashed=0;html=1;strokeColor=none;fillColor=#4495D1;labelPosition=center;verticalLabelPosition=bottom;verticalAlign=top;align=center;outlineConnect=0;shape=mxgraph.veeam.proxy_server;" parent="1" vertex="1">
          <mxGeometry x="260" y="273" width="76" height="72" as="geometry" />
        </mxCell>
        <mxCell id="0c4fmtlid6ZM7AGweIoZ-23" value="Proxy Server" style="text;html=1;align=center;verticalAlign=middle;whiteSpace=wrap;rounded=0;" parent="1" vertex="1">
          <mxGeometry x="268" y="345" width="60" height="30" as="geometry" />
        </mxCell>
        <mxCell id="0c4fmtlid6ZM7AGweIoZ-24" value="" style="image;aspect=fixed;html=1;points=[];align=center;fontSize=12;image=img/lib/azure2/databases/Azure_Database_PostgreSQL_Server.svg;" parent="1" vertex="1">
          <mxGeometry x="571.5" y="158" width="48" height="64" as="geometry" />
        </mxCell>
        <mxCell id="0c4fmtlid6ZM7AGweIoZ-25" value="" style="image;aspect=fixed;html=1;points=[];align=center;fontSize=12;image=img/lib/azure2/databases/Azure_Database_PostgreSQL_Server.svg;" parent="1" vertex="1">
          <mxGeometry x="378" y="660" width="48" height="64" as="geometry" />
        </mxCell>
        <mxCell id="0c4fmtlid6ZM7AGweIoZ-26" value="" style="image;aspect=fixed;html=1;points=[];align=center;fontSize=12;image=img/lib/azure2/databases/Azure_Database_PostgreSQL_Server.svg;" parent="1" vertex="1">
          <mxGeometry x="730" y="400.04" width="48" height="64" as="geometry" />
        </mxCell>
        <mxCell id="0c4fmtlid6ZM7AGweIoZ-27" value="" style="image;aspect=fixed;html=1;points=[];align=center;fontSize=12;image=img/lib/azure2/databases/Azure_Database_PostgreSQL_Server.svg;" parent="1" vertex="1">
          <mxGeometry x="577.5" y="256" width="48" height="64" as="geometry" />
        </mxCell>
        <mxCell id="0c4fmtlid6ZM7AGweIoZ-28" value="" style="endArrow=block;startArrow=block;endFill=1;startFill=1;html=1;rounded=0;exitX=1;exitY=0.488;exitDx=0;exitDy=0;exitPerimeter=0;" parent="1" source="0c4fmtlid6ZM7AGweIoZ-15" edge="1">
          <mxGeometry width="160" relative="1" as="geometry">
            <mxPoint x="460" y="190" as="sourcePoint" />
            <mxPoint x="577.5" y="189.5" as="targetPoint" />
          </mxGeometry>
        </mxCell>
        <mxCell id="0c4fmtlid6ZM7AGweIoZ-29" value="" style="endArrow=block;startArrow=block;endFill=1;startFill=1;html=1;rounded=0;exitX=1;exitY=0.488;exitDx=0;exitDy=0;exitPerimeter=0;" parent="1" edge="1">
          <mxGeometry width="160" relative="1" as="geometry">
            <mxPoint x="446.25" y="293" as="sourcePoint" />
            <mxPoint x="573.75" y="292.5" as="targetPoint" />
          </mxGeometry>
        </mxCell>
        <mxCell id="0c4fmtlid6ZM7AGweIoZ-30" value="" style="edgeStyle=orthogonalEdgeStyle;rounded=0;orthogonalLoop=1;jettySize=auto;html=1;" parent="1" source="0c4fmtlid6ZM7AGweIoZ-31" target="0c4fmtlid6ZM7AGweIoZ-10" edge="1">
          <mxGeometry relative="1" as="geometry" />
        </mxCell>
        <mxCell id="0c4fmtlid6ZM7AGweIoZ-31" value="Actor" style="shape=umlActor;verticalLabelPosition=bottom;verticalAlign=top;html=1;" parent="1" vertex="1">
          <mxGeometry x="40" y="285" width="30" height="60" as="geometry" />
        </mxCell>
        <mxCell id="0c4fmtlid6ZM7AGweIoZ-32" value="" style="html=1;verticalAlign=bottom;endArrow=block;curved=0;rounded=0;" parent="1" edge="1">
          <mxGeometry width="80" relative="1" as="geometry">
            <mxPoint x="200" y="308.5" as="sourcePoint" />
            <mxPoint x="280" y="308.5" as="targetPoint" />
          </mxGeometry>
        </mxCell>
        <mxCell id="0c4fmtlid6ZM7AGweIoZ-33" value="" style="edgeStyle=orthogonalEdgeStyle;rounded=0;orthogonalLoop=1;jettySize=auto;html=1;" parent="1" source="0c4fmtlid6ZM7AGweIoZ-34" target="0c4fmtlid6ZM7AGweIoZ-36" edge="1">
          <mxGeometry relative="1" as="geometry" />
        </mxCell>
        <mxCell id="0c4fmtlid6ZM7AGweIoZ-34" value="Actor" style="shape=umlActor;verticalLabelPosition=bottom;verticalAlign=top;html=1;" parent="1" vertex="1">
          <mxGeometry x="40" y="150" width="30" height="60" as="geometry" />
        </mxCell>
        <object label="" id="0c4fmtlid6ZM7AGweIoZ-35">
          <mxCell style="outlineConnect=0;dashed=0;verticalLabelPosition=bottom;verticalAlign=top;align=center;html=1;shape=mxgraph.aws3.api_gateway;fillColor=#D9A741;gradientColor=none;" parent="1" vertex="1">
            <mxGeometry x="145" y="152" width="50" height="70" as="geometry" />
          </mxCell>
        </object>
        <mxCell id="0c4fmtlid6ZM7AGweIoZ-36" value="App GW" style="text;html=1;align=center;verticalAlign=middle;whiteSpace=wrap;rounded=0;" parent="1" vertex="1">
          <mxGeometry x="120" y="215" width="60" height="30" as="geometry" />
        </mxCell>
        <mxCell id="0c4fmtlid6ZM7AGweIoZ-37" value="" style="shadow=0;dashed=0;html=1;strokeColor=none;fillColor=#4495D1;labelPosition=center;verticalLabelPosition=bottom;verticalAlign=top;align=center;outlineConnect=0;shape=mxgraph.veeam.proxy_server;" parent="1" vertex="1">
          <mxGeometry x="252" y="154" width="76" height="72" as="geometry" />
        </mxCell>
        <mxCell id="0c4fmtlid6ZM7AGweIoZ-38" value="Proxy Server" style="text;html=1;align=center;verticalAlign=middle;whiteSpace=wrap;rounded=0;" parent="1" vertex="1">
          <mxGeometry x="260" y="226" width="60" height="30" as="geometry" />
        </mxCell>
        <mxCell id="0c4fmtlid6ZM7AGweIoZ-39" value="" style="html=1;verticalAlign=bottom;endArrow=block;curved=0;rounded=0;" parent="1" edge="1">
          <mxGeometry width="80" relative="1" as="geometry">
            <mxPoint x="188" y="186.5" as="sourcePoint" />
            <mxPoint x="268" y="186.5" as="targetPoint" />
          </mxGeometry>
        </mxCell>
        <mxCell id="0c4fmtlid6ZM7AGweIoZ-40" value="" style="endArrow=open;endFill=1;endSize=12;html=1;rounded=0;" parent="1" edge="1">
          <mxGeometry width="160" relative="1" as="geometry">
            <mxPoint x="310" y="187" as="sourcePoint" />
            <mxPoint x="350" y="187" as="targetPoint" />
          </mxGeometry>
        </mxCell>
        <mxCell id="0c4fmtlid6ZM7AGweIoZ-41" value="" style="html=1;verticalAlign=bottom;startArrow=oval;startFill=1;endArrow=block;startSize=8;curved=0;rounded=0;entryX=0;entryY=0.5;entryDx=0;entryDy=0;" parent="1" target="0c4fmtlid6ZM7AGweIoZ-21" edge="1">
          <mxGeometry width="60" relative="1" as="geometry">
            <mxPoint x="310" y="292.5" as="sourcePoint" />
            <mxPoint x="340" y="293" as="targetPoint" />
          </mxGeometry>
        </mxCell>
        <mxCell id="0c4fmtlid6ZM7AGweIoZ-42" value="" style="edgeStyle=orthogonalEdgeStyle;rounded=0;orthogonalLoop=1;jettySize=auto;html=1;" parent="1" source="0c4fmtlid6ZM7AGweIoZ-44" target="0c4fmtlid6ZM7AGweIoZ-26" edge="1">
          <mxGeometry relative="1" as="geometry" />
        </mxCell>
        <mxCell id="0c4fmtlid6ZM7AGweIoZ-43" value="" style="edgeStyle=orthogonalEdgeStyle;rounded=0;orthogonalLoop=1;jettySize=auto;html=1;" parent="1" source="0c4fmtlid6ZM7AGweIoZ-44" target="0c4fmtlid6ZM7AGweIoZ-45" edge="1">
          <mxGeometry relative="1" as="geometry" />
        </mxCell>
        <mxCell id="0c4fmtlid6ZM7AGweIoZ-44" value="Infra Service" style="rounded=1;whiteSpace=wrap;html=1;" parent="1" vertex="1">
          <mxGeometry x="541.5" y="402.04" width="120" height="60" as="geometry" />
        </mxCell>
        <mxCell id="0c4fmtlid6ZM7AGweIoZ-45" value="Azure Resource&lt;div&gt;Manager&lt;/div&gt;" style="rounded=1;whiteSpace=wrap;html=1;" parent="1" vertex="1">
          <mxGeometry x="543" y="550" width="120" height="60" as="geometry" />
        </mxCell>
        <mxCell id="0c4fmtlid6ZM7AGweIoZ-46" style="edgeStyle=orthogonalEdgeStyle;rounded=0;orthogonalLoop=1;jettySize=auto;html=1;exitX=0.5;exitY=0;exitDx=0;exitDy=0;entryX=0.842;entryY=0.905;entryDx=0;entryDy=0;entryPerimeter=0;" parent="1" source="0c4fmtlid6ZM7AGweIoZ-44" target="0c4fmtlid6ZM7AGweIoZ-21" edge="1">
          <mxGeometry relative="1" as="geometry" />
        </mxCell>
        <mxCell id="0c4fmtlid6ZM7AGweIoZ-47" style="edgeStyle=orthogonalEdgeStyle;rounded=0;orthogonalLoop=1;jettySize=auto;html=1;exitX=0.25;exitY=0;exitDx=0;exitDy=0;entryX=0.186;entryY=1.065;entryDx=0;entryDy=0;entryPerimeter=0;" parent="1" source="0c4fmtlid6ZM7AGweIoZ-19" target="0c4fmtlid6ZM7AGweIoZ-21" edge="1">
          <mxGeometry relative="1" as="geometry" />
        </mxCell>
        <mxCell id="0c4fmtlid6ZM7AGweIoZ-48" value="K8S Orchestrator" style="rounded=1;whiteSpace=wrap;html=1;" parent="1" vertex="1">
          <mxGeometry x="160.64999999999998" y="550" width="120" height="60" as="geometry" />
        </mxCell>
        <mxCell id="0c4fmtlid6ZM7AGweIoZ-49" value="" style="shape=note;whiteSpace=wrap;html=1;backgroundOutline=1;darkOpacity=0.05;" parent="1" vertex="1">
          <mxGeometry x="50" y="730" width="760" height="100" as="geometry" />
        </mxCell>
      </root>
    </mxGraphModel>
  </diagram>
  <diagram name="Ledger Service" id="gKMQrkrZaSsQgSGjlNKk">
    <mxGraphModel dx="1042" dy="527" grid="1" gridSize="10" guides="1" tooltips="1" connect="1" arrows="1" fold="1" page="1" pageScale="1" pageWidth="827" pageHeight="1169" math="0" shadow="0">
      <root>
        <mxCell id="0" />
        <mxCell id="1" parent="0" />
        <mxCell id="QeNrJQ_5_x_zLFCwDtk--42" value="" style="edgeStyle=orthogonalEdgeStyle;rounded=0;orthogonalLoop=1;jettySize=auto;html=1;fontFamily=Helvetica;fontSize=12;fontColor=default;" edge="1" parent="1" source="QeNrJQ_5_x_zLFCwDtk--2" target="QeNrJQ_5_x_zLFCwDtk--3">
          <mxGeometry relative="1" as="geometry" />
        </mxCell>
        <mxCell id="QeNrJQ_5_x_zLFCwDtk--2" value="Actor" style="shape=umlActor;verticalLabelPosition=bottom;verticalAlign=top;html=1;outlineConnect=0;" vertex="1" parent="1">
          <mxGeometry y="190" width="30" height="60" as="geometry" />
        </mxCell>
        <mxCell id="QeNrJQ_5_x_zLFCwDtk--6" value="" style="edgeStyle=orthogonalEdgeStyle;rounded=0;orthogonalLoop=1;jettySize=auto;html=1;" edge="1" parent="1" source="QeNrJQ_5_x_zLFCwDtk--3" target="QeNrJQ_5_x_zLFCwDtk--5">
          <mxGeometry relative="1" as="geometry" />
        </mxCell>
        <mxCell id="QeNrJQ_5_x_zLFCwDtk--3" value="" style="outlineConnect=0;dashed=0;verticalLabelPosition=bottom;verticalAlign=top;align=center;html=1;shape=mxgraph.aws3.api_gateway;fillColor=#D9A741;gradientColor=none;" vertex="1" parent="1">
          <mxGeometry x="110" y="173.5" width="76.5" height="93" as="geometry" />
        </mxCell>
        <mxCell id="QeNrJQ_5_x_zLFCwDtk--8" value="" style="edgeStyle=orthogonalEdgeStyle;rounded=0;orthogonalLoop=1;jettySize=auto;html=1;" edge="1" parent="1" source="QeNrJQ_5_x_zLFCwDtk--5" target="QeNrJQ_5_x_zLFCwDtk--7">
          <mxGeometry relative="1" as="geometry" />
        </mxCell>
        <mxCell id="QeNrJQ_5_x_zLFCwDtk--5" value="NGINX&lt;div&gt;&amp;nbsp;Proxy&lt;/div&gt;" style="rounded=1;whiteSpace=wrap;html=1;verticalAlign=top;fillColor=default;dashed=0;gradientColor=none;" vertex="1" parent="1">
          <mxGeometry x="244.75" y="190" width="120" height="60" as="geometry" />
        </mxCell>
        <mxCell id="QeNrJQ_5_x_zLFCwDtk--10" value="" style="edgeStyle=orthogonalEdgeStyle;rounded=0;orthogonalLoop=1;jettySize=auto;html=1;" edge="1" parent="1" source="QeNrJQ_5_x_zLFCwDtk--7" target="QeNrJQ_5_x_zLFCwDtk--9">
          <mxGeometry relative="1" as="geometry" />
        </mxCell>
        <mxCell id="QeNrJQ_5_x_zLFCwDtk--18" value="" style="edgeStyle=orthogonalEdgeStyle;rounded=0;orthogonalLoop=1;jettySize=auto;html=1;" edge="1" parent="1" source="QeNrJQ_5_x_zLFCwDtk--7" target="QeNrJQ_5_x_zLFCwDtk--17">
          <mxGeometry relative="1" as="geometry" />
        </mxCell>
        <mxCell id="QeNrJQ_5_x_zLFCwDtk--39" value="" style="edgeStyle=orthogonalEdgeStyle;rounded=0;orthogonalLoop=1;jettySize=auto;html=1;" edge="1" parent="1" source="QeNrJQ_5_x_zLFCwDtk--7" target="QeNrJQ_5_x_zLFCwDtk--38">
          <mxGeometry relative="1" as="geometry" />
        </mxCell>
        <mxCell id="QeNrJQ_5_x_zLFCwDtk--7" value="Ledger&lt;div&gt;Service&lt;/div&gt;" style="rounded=1;whiteSpace=wrap;html=1;verticalAlign=top;fillColor=default;dashed=0;gradientColor=none;" vertex="1" parent="1">
          <mxGeometry x="460" y="190" width="120" height="60" as="geometry" />
        </mxCell>
        <mxCell id="QeNrJQ_5_x_zLFCwDtk--12" value="" style="edgeStyle=orthogonalEdgeStyle;rounded=0;orthogonalLoop=1;jettySize=auto;html=1;" edge="1" parent="1" source="QeNrJQ_5_x_zLFCwDtk--9" target="QeNrJQ_5_x_zLFCwDtk--11">
          <mxGeometry relative="1" as="geometry" />
        </mxCell>
        <mxCell id="QeNrJQ_5_x_zLFCwDtk--22" style="edgeStyle=orthogonalEdgeStyle;rounded=0;orthogonalLoop=1;jettySize=auto;html=1;exitX=0;exitY=1;exitDx=0;exitDy=0;entryX=1;entryY=0.75;entryDx=0;entryDy=0;" edge="1" parent="1" source="QeNrJQ_5_x_zLFCwDtk--9" target="QeNrJQ_5_x_zLFCwDtk--7">
          <mxGeometry relative="1" as="geometry" />
        </mxCell>
        <mxCell id="QeNrJQ_5_x_zLFCwDtk--34" value="" style="edgeStyle=orthogonalEdgeStyle;rounded=0;orthogonalLoop=1;jettySize=auto;html=1;" edge="1" parent="1" source="QeNrJQ_5_x_zLFCwDtk--9" target="QeNrJQ_5_x_zLFCwDtk--33">
          <mxGeometry relative="1" as="geometry" />
        </mxCell>
        <mxCell id="QeNrJQ_5_x_zLFCwDtk--9" value="Infra&lt;div&gt;Service&lt;/div&gt;" style="whiteSpace=wrap;html=1;verticalAlign=top;fillColor=default;rounded=1;dashed=0;gradientColor=none;" vertex="1" parent="1">
          <mxGeometry x="644.75" y="190" width="120" height="60" as="geometry" />
        </mxCell>
        <mxCell id="QeNrJQ_5_x_zLFCwDtk--35" style="edgeStyle=orthogonalEdgeStyle;rounded=0;orthogonalLoop=1;jettySize=auto;html=1;exitX=0.5;exitY=1;exitDx=0;exitDy=0;entryX=1;entryY=0.25;entryDx=0;entryDy=0;" edge="1" parent="1" source="QeNrJQ_5_x_zLFCwDtk--11" target="QeNrJQ_5_x_zLFCwDtk--33">
          <mxGeometry relative="1" as="geometry" />
        </mxCell>
        <mxCell id="QeNrJQ_5_x_zLFCwDtk--36" style="edgeStyle=orthogonalEdgeStyle;rounded=0;orthogonalLoop=1;jettySize=auto;html=1;exitX=0.75;exitY=1;exitDx=0;exitDy=0;entryX=0.587;entryY=-0.007;entryDx=0;entryDy=0;entryPerimeter=0;" edge="1" parent="1" source="QeNrJQ_5_x_zLFCwDtk--11" target="QeNrJQ_5_x_zLFCwDtk--37">
          <mxGeometry relative="1" as="geometry">
            <mxPoint x="900" y="340" as="targetPoint" />
          </mxGeometry>
        </mxCell>
        <mxCell id="QeNrJQ_5_x_zLFCwDtk--11" value="Provisioning&lt;div&gt;Service&lt;/div&gt;" style="whiteSpace=wrap;html=1;verticalAlign=top;fillColor=default;rounded=1;dashed=0;gradientColor=none;" vertex="1" parent="1">
          <mxGeometry x="810" y="190" width="120" height="60" as="geometry" />
        </mxCell>
        <mxCell id="QeNrJQ_5_x_zLFCwDtk--19" style="edgeStyle=orthogonalEdgeStyle;rounded=0;orthogonalLoop=1;jettySize=auto;html=1;entryX=0.5;entryY=0;entryDx=0;entryDy=0;" edge="1" parent="1" source="QeNrJQ_5_x_zLFCwDtk--17" target="QeNrJQ_5_x_zLFCwDtk--9">
          <mxGeometry relative="1" as="geometry">
            <Array as="points">
              <mxPoint x="740" y="110" />
              <mxPoint x="740" y="110" />
            </Array>
          </mxGeometry>
        </mxCell>
        <mxCell id="QeNrJQ_5_x_zLFCwDtk--17" value="Service Bus" style="shape=process;whiteSpace=wrap;html=1;backgroundOutline=1;" vertex="1" parent="1">
          <mxGeometry x="390" y="50" width="560" height="60" as="geometry" />
        </mxCell>
        <mxCell id="QeNrJQ_5_x_zLFCwDtk--21" style="edgeStyle=orthogonalEdgeStyle;rounded=0;orthogonalLoop=1;jettySize=auto;html=1;exitX=0.75;exitY=1;exitDx=0;exitDy=0;entryX=0.437;entryY=-0.013;entryDx=0;entryDy=0;entryPerimeter=0;" edge="1" parent="1" source="QeNrJQ_5_x_zLFCwDtk--17" target="QeNrJQ_5_x_zLFCwDtk--11">
          <mxGeometry relative="1" as="geometry" />
        </mxCell>
        <mxCell id="QeNrJQ_5_x_zLFCwDtk--32" value="" style="curved=1;endArrow=classic;html=1;rounded=0;exitX=0.5;exitY=1;exitDx=0;exitDy=0;" edge="1" parent="1" source="QeNrJQ_5_x_zLFCwDtk--11">
          <mxGeometry width="50" height="50" relative="1" as="geometry">
            <mxPoint x="410" y="300" as="sourcePoint" />
            <mxPoint x="460" y="250" as="targetPoint" />
            <Array as="points">
              <mxPoint x="460" y="300" />
              <mxPoint x="410" y="250" />
            </Array>
          </mxGeometry>
        </mxCell>
        <mxCell id="QeNrJQ_5_x_zLFCwDtk--33" value="Azure&amp;nbsp;&lt;div&gt;Resource&lt;/div&gt;&lt;div&gt;Manager&lt;/div&gt;" style="whiteSpace=wrap;html=1;verticalAlign=top;fillColor=default;rounded=1;dashed=0;gradientColor=none;" vertex="1" parent="1">
          <mxGeometry x="644.75" y="330" width="120" height="60" as="geometry" />
        </mxCell>
        <mxCell id="QeNrJQ_5_x_zLFCwDtk--37" value="&lt;div&gt;&lt;br&gt;&lt;/div&gt;&lt;div&gt;K8S Orchestrator&lt;/div&gt;" style="whiteSpace=wrap;html=1;verticalAlign=top;fillColor=default;rounded=1;dashed=0;gradientColor=none;" vertex="1" parent="1">
          <mxGeometry x="830" y="360" width="120" height="60" as="geometry" />
        </mxCell>
        <mxCell id="QeNrJQ_5_x_zLFCwDtk--38" value="" style="image;aspect=fixed;html=1;points=[];align=center;fontSize=12;image=img/lib/azure2/databases/Azure_Database_PostgreSQL_Server.svg;" vertex="1" parent="1">
          <mxGeometry x="496" y="330" width="48" height="64" as="geometry" />
        </mxCell>
        <mxCell id="QeNrJQ_5_x_zLFCwDtk--40" value="" style="verticalLabelPosition=bottom;html=1;verticalAlign=top;align=center;strokeColor=none;fillColor=#00BEF2;shape=mxgraph.azure.azure_active_directory;rounded=1;dashed=0;fontFamily=Helvetica;fontSize=12;fontColor=default;" vertex="1" parent="1">
          <mxGeometry x="50" y="300" width="47.5" height="50" as="geometry" />
        </mxCell>
        <mxCell id="QeNrJQ_5_x_zLFCwDtk--49" value="" style="endArrow=classic;startArrow=classic;html=1;rounded=0;fontFamily=Helvetica;fontSize=12;fontColor=default;" edge="1" parent="1" source="QeNrJQ_5_x_zLFCwDtk--40">
          <mxGeometry width="50" height="50" relative="1" as="geometry">
            <mxPoint x="47.5" y="300" as="sourcePoint" />
            <mxPoint x="70" y="220" as="targetPoint" />
          </mxGeometry>
        </mxCell>
        <mxCell id="QeNrJQ_5_x_zLFCwDtk--50" value="Azure AD" style="text;html=1;align=center;verticalAlign=middle;whiteSpace=wrap;rounded=0;fontFamily=Helvetica;fontSize=12;fontColor=default;" vertex="1" parent="1">
          <mxGeometry x="43.75" y="350" width="60" height="30" as="geometry" />
        </mxCell>
        <mxCell id="QeNrJQ_5_x_zLFCwDtk--51" value="Azure&amp;nbsp;&lt;div&gt;App GW&lt;/div&gt;" style="text;html=1;align=center;verticalAlign=middle;whiteSpace=wrap;rounded=0;fontFamily=Helvetica;fontSize=12;fontColor=default;" vertex="1" parent="1">
          <mxGeometry x="118.25" y="266.5" width="60" height="30" as="geometry" />
        </mxCell>
        <mxCell id="QeNrJQ_5_x_zLFCwDtk--52" value="Intel AAD user logs into LaaS UI. User redirects to Azure AD where they can login.&lt;div&gt;A token is issued from Azure through our service/UI.&lt;/div&gt;&lt;div&gt;The request is forwarded to NGINX proxy for load balancing at services side.&lt;/div&gt;&lt;div&gt;The request is forwarded to ledger Service.&lt;/div&gt;&lt;div&gt;LS records ledger meta data information into Postgres.&lt;/div&gt;&lt;div&gt;LS publishes a message to Bus. This is subscribers and here it is Infra Service.&lt;/div&gt;&lt;div&gt;Now, IS picks up the message.&lt;/div&gt;&lt;div&gt;IS talks to ARM to deploy Azure resources as per bicep scripts.&lt;/div&gt;&lt;div&gt;IS update service bus with an update.&lt;/div&gt;&lt;div&gt;LS picks up that and publishes another message for Provision Service.&lt;/div&gt;&lt;div&gt;Now, PS picks the message and talks to K8S to generate helm chart for ledger deployment.&lt;/div&gt;&lt;div&gt;PS talks to ARM to deploy helm charts on to AKS instances.&lt;/div&gt;&lt;div&gt;After helm charts successful deployment, PS posts message to bus for LS.&lt;/div&gt;&lt;div&gt;LS then makes the ledger status as Ready based on bus message.&lt;/div&gt;&lt;div&gt;&lt;br&gt;&lt;/div&gt;&lt;div&gt;While infra provisioning, its gets provisioned in one region with app gateway and NGINX proxy servers.&amp;nbsp;&lt;/div&gt;&lt;div&gt;Each service gets deployed as a POD and 2 instances will be running in a node.&lt;br&gt;&lt;div&gt;&lt;br&gt;&lt;/div&gt;&lt;/div&gt;" style="shape=note;whiteSpace=wrap;html=1;backgroundOutline=1;fontColor=#000000;darkOpacity=0.05;fillColor=#FFF9B2;strokeColor=none;fillStyle=solid;direction=west;gradientDirection=north;gradientColor=#FFF2A1;shadow=1;size=20;pointerEvents=1;rounded=1;dashed=0;align=center;verticalAlign=top;fontFamily=Helvetica;fontSize=12;" vertex="1" parent="1">
          <mxGeometry x="30" y="460" width="890" height="280" as="geometry" />
        </mxCell>
      </root>
    </mxGraphModel>
  </diagram>
  <diagram id="1uZvJxW_-S5LjNGS7W_E" name="Page-3">
    <mxGraphModel dx="2066" dy="1103" grid="1" gridSize="10" guides="1" tooltips="1" connect="1" arrows="1" fold="1" page="0" pageScale="1" pageWidth="827" pageHeight="1169" math="0" shadow="0">
      <root>
        <mxCell id="0" />
        <mxCell id="1" parent="0" />
        <mxCell id="KWiLcEaer8wi6ZmC3wcg-6" value="" style="edgeStyle=orthogonalEdgeStyle;rounded=0;orthogonalLoop=1;jettySize=auto;html=1;" edge="1" parent="1" source="KWiLcEaer8wi6ZmC3wcg-1" target="KWiLcEaer8wi6ZmC3wcg-5">
          <mxGeometry relative="1" as="geometry" />
        </mxCell>
        <mxCell id="KWiLcEaer8wi6ZmC3wcg-1" value="" style="outlineConnect=0;dashed=0;verticalLabelPosition=bottom;verticalAlign=top;align=center;html=1;shape=mxgraph.aws3.api_gateway;fillColor=#D9A741;gradientColor=none;" vertex="1" parent="1">
          <mxGeometry x="40" y="160" width="76.5" height="93" as="geometry" />
        </mxCell>
        <mxCell id="KWiLcEaer8wi6ZmC3wcg-2" value="API gaetway" style="text;strokeColor=none;align=center;fillColor=none;html=1;verticalAlign=middle;whiteSpace=wrap;rounded=0;" vertex="1" parent="1">
          <mxGeometry x="48.25" y="253" width="60" height="30" as="geometry" />
        </mxCell>
        <mxCell id="KWiLcEaer8wi6ZmC3wcg-8" value="" style="edgeStyle=orthogonalEdgeStyle;rounded=0;orthogonalLoop=1;jettySize=auto;html=1;" edge="1" parent="1" source="KWiLcEaer8wi6ZmC3wcg-5" target="KWiLcEaer8wi6ZmC3wcg-7">
          <mxGeometry relative="1" as="geometry" />
        </mxCell>
        <mxCell id="KWiLcEaer8wi6ZmC3wcg-5" value="ObservabilityService" style="whiteSpace=wrap;html=1;verticalAlign=top;fillColor=#D9A741;dashed=0;gradientColor=none;" vertex="1" parent="1">
          <mxGeometry x="174.75" y="176.5" width="120" height="53.5" as="geometry" />
        </mxCell>
        <mxCell id="KWiLcEaer8wi6ZmC3wcg-11" value="" style="edgeStyle=orthogonalEdgeStyle;rounded=0;orthogonalLoop=1;jettySize=auto;html=1;" edge="1" parent="1" source="KWiLcEaer8wi6ZmC3wcg-7" target="KWiLcEaer8wi6ZmC3wcg-10">
          <mxGeometry relative="1" as="geometry" />
        </mxCell>
        <mxCell id="KWiLcEaer8wi6ZmC3wcg-7" value="" style="sketch=0;points=[[0,0,0],[0.25,0,0],[0.5,0,0],[0.75,0,0],[1,0,0],[0,1,0],[0.25,1,0],[0.5,1,0],[0.75,1,0],[1,1,0],[0,0.25,0],[0,0.5,0],[0,0.75,0],[1,0.25,0],[1,0.5,0],[1,0.75,0]];outlineConnect=0;fontColor=#232F3E;fillColor=#8C4FFF;strokeColor=#ffffff;dashed=0;verticalLabelPosition=bottom;verticalAlign=top;align=center;html=1;fontSize=12;fontStyle=0;aspect=fixed;shape=mxgraph.aws4.resourceIcon;resIcon=mxgraph.aws4.managed_streaming_for_kafka;" vertex="1" parent="1">
          <mxGeometry x="410" y="167.5" width="78" height="78" as="geometry" />
        </mxCell>
        <mxCell id="KWiLcEaer8wi6ZmC3wcg-9" value="POST - /api/logs&lt;div&gt;GET - /api/health&lt;/div&gt;&lt;div&gt;GET - /api/config/agentID&lt;/div&gt;&lt;div&gt;POST - /api/auth/validate&lt;/div&gt;" style="text;strokeColor=none;align=center;fillColor=none;html=1;verticalAlign=middle;whiteSpace=wrap;rounded=0;" vertex="1" parent="1">
          <mxGeometry x="170" y="245.5" width="170" height="134.5" as="geometry" />
        </mxCell>
        <mxCell id="KWiLcEaer8wi6ZmC3wcg-13" value="" style="edgeStyle=orthogonalEdgeStyle;rounded=0;orthogonalLoop=1;jettySize=auto;html=1;" edge="1" parent="1" source="KWiLcEaer8wi6ZmC3wcg-10">
          <mxGeometry relative="1" as="geometry">
            <mxPoint x="613.5" y="316.5" as="targetPoint" />
          </mxGeometry>
        </mxCell>
        <mxCell id="KWiLcEaer8wi6ZmC3wcg-19" value="" style="edgeStyle=orthogonalEdgeStyle;rounded=0;orthogonalLoop=1;jettySize=auto;html=1;" edge="1" parent="1" source="KWiLcEaer8wi6ZmC3wcg-10" target="KWiLcEaer8wi6ZmC3wcg-18">
          <mxGeometry relative="1" as="geometry" />
        </mxCell>
        <mxCell id="KWiLcEaer8wi6ZmC3wcg-10" value="LogProcessorService&lt;div&gt;&lt;br&gt;&lt;/div&gt;" style="whiteSpace=wrap;html=1;verticalAlign=top;sketch=0;dashed=0;fontStyle=0;" vertex="1" parent="1">
          <mxGeometry x="547" y="176.5" width="120" height="60" as="geometry" />
        </mxCell>
        <mxCell id="KWiLcEaer8wi6ZmC3wcg-14" value="This registers as a consumer fdr Kafka topic&lt;div&gt;This will parse the logs and adds some filter and make the logs more readable and understandable.&lt;/div&gt;&lt;div&gt;&lt;br&gt;&lt;/div&gt;&lt;table&gt;&lt;tbody&gt;&lt;tr data-end=&quot;4169&quot; data-start=&quot;4019&quot;&gt;&lt;td data-end=&quot;4169&quot; data-start=&quot;4079&quot; data-col-size=&quot;md&quot;&gt;Parses logs, applies rules, raises alerts. Can integrate with AWS SNS for notification&lt;/td&gt;&lt;/tr&gt;&lt;/tbody&gt;&lt;/table&gt;&lt;table&gt;&lt;tbody&gt;&lt;tr data-end=&quot;4284&quot; data-start=&quot;4170&quot;&gt;&lt;td data-col-size=&quot;sm&quot; data-end=&quot;4197&quot; data-start=&quot;4170&quot;&gt;&lt;/td&gt;&lt;/tr&gt;&lt;/tbody&gt;&lt;/table&gt;&lt;div&gt;&amp;nbsp;&lt;/div&gt;" style="text;strokeColor=none;align=center;fillColor=none;html=1;verticalAlign=middle;whiteSpace=wrap;rounded=0;" vertex="1" parent="1">
          <mxGeometry x="630" y="20" width="280" height="110" as="geometry" />
        </mxCell>
        <mxCell id="KWiLcEaer8wi6ZmC3wcg-24" value="" style="edgeStyle=orthogonalEdgeStyle;rounded=0;orthogonalLoop=1;jettySize=auto;html=1;" edge="1" parent="1" source="KWiLcEaer8wi6ZmC3wcg-15" target="KWiLcEaer8wi6ZmC3wcg-23">
          <mxGeometry relative="1" as="geometry" />
        </mxCell>
        <mxCell id="KWiLcEaer8wi6ZmC3wcg-15" value="Elastic&lt;div&gt;search&lt;/div&gt;" style="shape=cylinder3;whiteSpace=wrap;html=1;boundedLbl=1;backgroundOutline=1;size=15;" vertex="1" parent="1">
          <mxGeometry x="590" y="320" width="60" height="80" as="geometry" />
        </mxCell>
        <mxCell id="KWiLcEaer8wi6ZmC3wcg-16" value="&lt;span style=&quot;color: rgb(0, 0, 0); font-family: Helvetica; font-size: 12px; font-style: normal; font-variant-ligatures: normal; font-variant-caps: normal; font-weight: 400; letter-spacing: normal; orphans: 2; text-align: center; text-indent: 0px; text-transform: none; widows: 2; word-spacing: 0px; -webkit-text-stroke-width: 0px; white-space: normal; background-color: rgb(236, 236, 236); text-decoration-thickness: initial; text-decoration-style: initial; text-decoration-color: initial; float: none; display: inline !important;&quot;&gt;Database like ElasticSearch which stores the log json message as document&lt;br&gt;Cloud managed storage systems also we can use and easily achieve scalability and availability , fault tolerance, backups, etc.&lt;/span&gt;" style="text;whiteSpace=wrap;html=1;" vertex="1" parent="1">
          <mxGeometry x="660" y="340" width="440" height="60" as="geometry" />
        </mxCell>
        <mxCell id="KWiLcEaer8wi6ZmC3wcg-17" value="If we use ELK Stack,&amp;nbsp;&lt;div&gt;we can use Elasticsearch as DB and Kibana as dashboard and alerting engine based on log messages.&lt;/div&gt;&lt;div&gt;&lt;br&gt;&lt;/div&gt;&lt;div&gt;We have licenced stuff as well like Splunk and Dynatrace and cloud managed stuff like Azure Log analytics, Azure Gateway, Azure DB with alerting facility. And AWS also has similar one.&lt;/div&gt;" style="rounded=1;whiteSpace=wrap;html=1;" vertex="1" parent="1">
          <mxGeometry x="1180" y="40" width="280" height="170" as="geometry" />
        </mxCell>
        <mxCell id="KWiLcEaer8wi6ZmC3wcg-20" style="edgeStyle=orthogonalEdgeStyle;rounded=0;orthogonalLoop=1;jettySize=auto;html=1;exitX=0;exitY=0.75;exitDx=0;exitDy=0;entryX=1;entryY=0.75;entryDx=0;entryDy=0;" edge="1" parent="1" source="KWiLcEaer8wi6ZmC3wcg-18" target="KWiLcEaer8wi6ZmC3wcg-10">
          <mxGeometry relative="1" as="geometry" />
        </mxCell>
        <mxCell id="KWiLcEaer8wi6ZmC3wcg-22" value="" style="edgeStyle=orthogonalEdgeStyle;rounded=0;orthogonalLoop=1;jettySize=auto;html=1;" edge="1" parent="1" source="KWiLcEaer8wi6ZmC3wcg-18" target="KWiLcEaer8wi6ZmC3wcg-21">
          <mxGeometry relative="1" as="geometry" />
        </mxCell>
        <mxCell id="KWiLcEaer8wi6ZmC3wcg-18" value="Alert Engine" style="whiteSpace=wrap;html=1;verticalAlign=top;sketch=0;dashed=0;fontStyle=0;" vertex="1" parent="1">
          <mxGeometry x="747" y="176.5" width="120" height="60" as="geometry" />
        </mxCell>
        <mxCell id="KWiLcEaer8wi6ZmC3wcg-21" value="Notification System" style="whiteSpace=wrap;html=1;verticalAlign=top;sketch=0;dashed=0;fontStyle=0;" vertex="1" parent="1">
          <mxGeometry x="947" y="176.5" width="120" height="60" as="geometry" />
        </mxCell>
        <mxCell id="KWiLcEaer8wi6ZmC3wcg-23" value="Dashboards like Dynatrace, Grafana" style="shape=parallelogram;perimeter=parallelogramPerimeter;whiteSpace=wrap;html=1;fixedSize=1;" vertex="1" parent="1">
          <mxGeometry x="560" y="490" width="120" height="80" as="geometry" />
        </mxCell>
        <mxCell id="KWiLcEaer8wi6ZmC3wcg-25" value="This regularly interacts with Log storage system and display the results to support team" style="text;strokeColor=none;align=center;fillColor=none;html=1;verticalAlign=middle;whiteSpace=wrap;rounded=0;" vertex="1" parent="1">
          <mxGeometry x="720" y="510" width="380" height="30" as="geometry" />
        </mxCell>
      </root>
    </mxGraphModel>
  </diagram>
</mxfile>
